<svg version="1" xmlns="http://www.w3.org/2000/svg" width="414.667" height="414.667" viewBox="0 0 311.000000 311.000000"><path d="M242.3 10c-2.6 1-2.5.3-2.4 22.2L240 45l-8.3.1c-4.5.1-9.5 0-11-.1s-3.5.4-4.4 1.2c-1.1.9-1.4.9-1 .1.6-.9-.2-1.2-2.8-1.1-4.5.2-5.8 2.4-5.8 9.3 0 9.2-.1 9.2 17.6 9.1l15.5-.1v16.9c0 11.1.4 17.2 1.2 18 1.4 1.4 16.5 1.5 18 0 .6-.6 1.1-7.5 1.3-17.9l.2-16.8 15.2.1c12 0 15.5-.3 16.4-1.4 1.6-1.9 1.5-14-.1-15.9-1-1.2-3.5-1.5-11.9-1.4-6.4 0-11.2.5-12 1.2-1.2 1-1.3.9-.7-.1.6-1 .2-1.3-1.5-1.2-6.1.5-5.8 1.5-5.8-16.6.1-9.1-.3-17-.8-17.5s-2.4-1.2-4.2-1.5c-2.8-.6-3.3-.4-2.6.7.6 1.1.5 1.2-.6.1-1.5-1.4-6.4-1.5-9.6-.2zm14.7 8.4c0 .2-.8 1-1.7 1.7-1.6 1.3-1.7 1.2-.4-.4 1.3-1.6 2.1-2.1 2.1-1.3zm0 16c0 .2-.8 1-1.7 1.7-1.6 1.3-1.7 1.2-.4-.4 1.3-1.6 2.1-2.1 2.1-1.3zm-12.4 5.1c-.1.8-.5 1.7-.8 2.1-.5.4-.4-1.6.1-3.4.3-.9.9.1.7 1.3zm12.4-1.1c0 .2-.8 1-1.7 1.7-1.6 1.3-1.7 1.2-.4-.4 1.3-1.6 2.1-2.1 2.1-1.3zM245 44c0 .5-.5 1-1.1 1-.5 0-.7-.5-.4-1 .3-.6.8-1 1.1-1 .2 0 .4.4.4 1zm11.4 4.6c.3.8.2 1.2-.4.9-.6-.3-1-1-1-1.6 0-1.4.7-1.1 1.4.7zm-.3 4.1c1.3 1.6 1.2 1.7-.3.4-1-.7-1.8-1.5-1.8-1.7 0-.8.8-.3 2.1 1.3zm-11.5 3.9c.1.9 0 1.3-.4 1-.3-.4-.7-1.4-.8-2.2-.1-.9 0-1.3.4-1 .3.4.7 1.4.8 2.2zm-24.5.1c1.3 1.6 1.2 1.7-.3.4-1-.7-1.8-1.5-1.8-1.7 0-.8.8-.3 2.1 1.3zm4.4.1c-.3.3-1.1 0-1.8-.7-.9-1-.8-1.1.6-.5 1 .3 1.5.9 1.2 1.2zm31.6-.1c1.3 1.6 1.2 1.7-.3.4-1-.7-1.8-1.5-1.8-1.7 0-.8.8-.3 2.1 1.3zm-39.6 4.1c-.3.3-1.1 0-1.8-.7-.9-1-.8-1.1.6-.5 1 .3 1.5.9 1.2 1.2zm17.1-.6c.3.4-.1.5-1 .4-.8-.1-1.8-.5-2.2-.8-.3-.4.1-.5 1-.4.8.1 1.8.5 2.2.8zm22.5.5c1.3 1.6 1.2 1.7-.3.4-1-.7-1.8-1.5-1.8-1.7 0-.8.8-.3 2.1 1.3zm.9 5.7c0 .2-.8 1-1.7 1.7-1.6 1.3-1.7 1.2-.4-.4 1.3-1.6 2.1-2.1 2.1-1.3zm-12.4 5.1c-.1.8-.5 1.7-.8 2.1-.5.4-.4-1.6.1-3.4.3-.9.9.1.7 1.3zm12.4-1.1c0 .2-.8 1-1.7 1.7-1.6 1.3-1.7 1.2-.4-.4 1.3-1.6 2.1-2.1 2.1-1.3zm0 4c0 .2-.8 1-1.7 1.7-1.6 1.3-1.7 1.2-.4-.4 1.3-1.6 2.1-2.1 2.1-1.3zm-12.9 2.9c-1 .9-1.1.8-.5-.6.3-1 .9-1.5 1.2-1.2.3.3 0 1.1-.7 1.8zm12.9 1.1c0 .2-.8 1-1.7 1.7-1.6 1.3-1.7 1.2-.4-.4 1.3-1.6 2.1-2.1 2.1-1.3zm-11 17c0 .2-.8 1-1.7 1.7-1.6 1.3-1.7 1.2-.4-.4 1.3-1.6 2.1-2.1 2.1-1.3zM33.6 51.7c-.1.1-1.5.4-3.1.6l-3 .4.3 11.8c.2 7.4.8 12.5 1.5 13.4.9 1.2.9 1.3 0 .7-.8-.4-1.3-.1-1.3.9 0 .9.4 1.4.9 1 1-.6.6 3.3-.4 4.3-.2.3-.1 1 .4 1.6 3.1 3.8 3.1 142.5 0 146.3-.7.7-.6 1.4.1 1.8.7.5.8 1.1.1 1.9-1.1 1.3-2.5 43.6-1.6 46.5.5 1.7 3 1.9 33.3 2.5 18 .3 55.1.7 82.5.8l49.9.3 1.3-2.5c.7-1.4 1.6-4.3 1.9-6.5.4-2.1 1-4.2 1.4-4.5.4-.3.8-1 .8-1.5.8-5.2 2.5-19.2 2.9-24 1.8-19.5 1.8-19.5-7-19.5-3.5 0-16 .7-27.7 1.6-24.2 1.8-54.1 1.5-59.8-.6-4.3-1.6-7.9-5-8.6-8.2-.2-1.2-.4-7.4-.4-13.7 0-9.6.3-11.6 1.7-12.7 2.2-1.7 21.8-1.8 59.8-.4 24.2.9 27.1.9 28.2-.6.7-1 .8-2.6.3-4.5-.5-1.6-.6-2.9-.2-2.9.4 0 .8-3.3 1-7.3.4-11.6 2.3-31.9 3.4-36.1 1.3-5.1.2-5.8-8.2-5.1-3.6.3-22.4 1-41.9 1.5-40.2 1-41 .9-43.1-5.5-1.1-3.4-1.6-19.6-.8-23.7.4-1.8 1.5-3.2 2.6-3.4.4 0 1.5-.4 2.5-.9 1.9-.8 40.3-.1 65.2 1.2 7.7.4 17.2.7 21 .8h7l-.1-10c-.1-5.5-.4-13-.8-16.8-.3-3.7-.9-9.7-1.2-13.4-.8-9.6-1-10-4-12.8-2.4-2.2-5.1-3.1-7.9-2.5-2.5.5-117.1.5-131.8.1-9.3-.3-17-.5-17.1-.4z"/></svg>